PathFileType	4	(X/Y/Z)	/Users/niels/Desktop/University/Third Semester/Perception and Action/Exam/Gymnastics Motion Tracking/Code for Gym Tracking/Analyzed Data/Start Salto/stsalto_good_id16_1_Sports2D/stsalto_good_id16_1_Sports2D_px_person00.trc
DataRate	CameraRate	NumFrames	NumMarkers	Units	OrigDataRate	OrigDataStartFrame	OrigNumFrames
29.837837837837835	29.837837837837835	7	22	m	29.837837837837835	138	185
Frame#	Time	Hip			RHip			RKnee			RAnkle			RBigToe			RSmallToe			RHeel			LHip			LKnee			LAnkle			LBigToe			LSmallToe			LHeel			Neck			Head			Nose			RShoulder			RElbow			RWrist			LShoulder			LElbow			LWrist		
		X1	Y1	Z1	X2	Y2	Z2	X3	Y3	Z3	X4	Y4	Z4	X5	Y5	Z5	X6	Y6	Z6	X7	Y7	Z7	X8	Y8	Z8	X9	Y9	Z9	X10	Y10	Z10	X11	Y11	Z11	X12	Y12	Z12	X13	Y13	Z13	X14	Y14	Z14	X15	Y15	Z15	X16	Y16	Z16	X17	Y17	Z17	X18	Y18	Z18	X19	Y19	Z19	X20	Y20	Z20	X21	Y21	Z21	X22	Y22	Z22
138	4.625	1.6003202013046762	-0.5176607630712023	0.0	1.623311861471495	-0.5163423763762262	0.0	1.6827624966270454	-0.6487056074886287	0.0	1.5766908344297796	-0.7152629721594036	0.0	1.589667251991459	-0.7787076406522151	0.0	1.5869981387309733	-0.7693560560989767	0.0	1.556746864254165	-0.7152166963644773	0.0	1.5814445978519973	-0.5197298305124189	0.0	1.6443224795571354	-0.6475728345663413	0.0	1.6060123588694926	-0.7637282815861375	0.0	1.6421580622522662	-0.7993858487574852	0.0	1.6343012743463505	-0.7916659053377731	0.0	1.5926394744978076	-0.781492217053859	0.0	1.6035502468515348	-0.3615448116827355	0.0	1.625125446011795	-0.2749425541813225	0.0	1.650055504261849	-0.32402035693788805	0.0	1.640503401870196	-0.3706816385456367	0.0	1.6563104243163276	-0.4568608968560342	0.0	1.7083743494217105	-0.5021969363564436	0.0	1.5635226746569217	-0.38375907254257086	0.0	1.5752819559081843	-0.45890683833565954	0.0	1.6287239277880852	-0.4968163170574371	0.0
139	4.658514492753624	1.6089225714437096	-0.5147541138072822	0.0	1.6329860348998255	-0.5140416159964406	0.0	1.6921492847012614	-0.6453641738348431	0.0	1.5901043931440009	-0.7131890714209765	0.0	1.6039167507635834	-0.778035898666208	0.0	1.60227617143909	-0.7695960666674635	0.0	1.569274609908696	-0.7149703719707007	0.0	1.5901916210641494	-0.5176569439319427	0.0	1.648076456102385	-0.6468258413634936	0.0	1.6070424726956423	-0.7626119672114325	0.0	1.6427010286163461	-0.7981386842382908	0.0	1.6341146519140046	-0.7912349857270207	0.0	1.5931109142226094	-0.7816265673134017	0.0	1.6127187415085533	-0.35784214484062604	0.0	1.6352204672626451	-0.27154333750628307	0.0	1.6599265460410038	-0.3211519044170507	0.0	1.6500957788344028	-0.36572798625873604	0.0	1.6668710633774848	-0.4515638612656017	0.0	1.7164252832152247	-0.49100626461858576	0.0	1.5743472964280083	-0.3791374688192245	0.0	1.5880675720636017	-0.45342733517168565	0.0	1.6429495716593092	-0.4911270986024337	0.0
140	4.692028985507247	1.6179573756030963	-0.511977240144391	0.0	1.6428205530489584	-0.5117413098103444	0.0	1.7018344904403564	-0.6417763316257421	0.0	1.6039367077966726	-0.7113153075845686	0.0	1.619405919491356	-0.777336049290563	0.0	1.6180838012138492	-0.7702166436644721	0.0	1.5824914780248633	-0.715495058207358	0.0	1.5988725295921602	-0.5158243542439318	0.0	1.651491573885327	-0.6460722865317354	0.0	1.6076957985819926	-0.7612840852562405	0.0	1.6438450324664984	-0.7967273568454667	0.0	1.6338457784622649	-0.7906561745054654	0.0	1.593379986450104	-0.78130236893429	0.0	1.6221919951828954	-0.35402561640842994	0.0	1.6453782076171473	-0.26799360006591405	0.0	1.669894241010666	-0.3178272542333085	0.0	1.6599692223801852	-0.3610515523709505	0.0	1.677311836786048	-0.4465276586905658	0.0	1.7242708329918766	-0.47986654439640386	0.0	1.5855697937842816	-0.3743314746386152	0.0	1.6005945533412502	-0.447983815292103	0.0	1.6579647183687862	-0.4846438274888142	0.0
141	4.72554347826087	1.6274717063934685	-0.5091088450225523	0.0	1.6527732299548894	-0.509106699056191	0.0	1.7118420845680866	-0.6377915236309293	0.0	1.6179334042270812	-0.7098317212647685	0.0	1.6365264126851866	-0.7763714907471158	0.0	1.63449582241914	-0.7708822250450019	0.0	1.596375979903145	-0.7167790079755687	0.0	1.6075737701301134	-0.5138890679987813	0.0	1.6545603245680893	-0.6451214445808967	0.0	1.607962423321336	-0.7599639984927238	0.0	1.6450220092056869	-0.7954886677296239	0.0	1.6330616593706166	-0.7900426232539339	0.0	1.5937676766242324	-0.7805092063182604	0.0	1.6320437845299511	-0.35009721351359857	0.0	1.6556042667059048	-0.2643424860782054	0.0	1.679951336711522	-0.3140581560979298	0.0	1.670212177978593	-0.3567649619105347	0.0	1.6876075556428627	-0.4418454350289598	0.0	1.7320875541225813	-0.46919345213052427	0.0	1.5968564868841693	-0.36951881964746325	0.0	1.6124726253526644	-0.4425698424471709	0.0	1.6728166102592223	-0.47676396893117606	0.0
142	4.759057971014493	1.6372561115956654	-0.5060437352077426	0.0	1.6626407630053495	-0.5059072676149076	0.0	1.7221344258182814	-0.6334930000668846	0.0	1.631734380056515	-0.7089918555049936	0.0	1.6548358993618835	-0.7748921890520025	0.0	1.6512636725507501	-0.7711460720866442	0.0	1.610518585703139	-0.7186792729414513	0.0	1.6162780356322668	-0.5115893436645558	0.0	1.6573448993315936	-0.6438910181964455	0.0	1.6079954111901438	-0.7587693883575974	0.0	1.6456389369281892	-0.7945711858857255	0.0	1.6315603074425795	-0.7894396012829893	0.0	1.5944951351643897	-0.779314685621714	0.0	1.6421777574192338	-0.34611736896676504	0.0	1.6658812745559703	-0.26071937054401	0.0	1.6899763124685805	-0.31005516298629904	0.0	1.6806626525673116	-0.3528946601874022	0.0	1.6975460709275239	-0.43759603075104414	0.0	1.739939543013813	-0.45950266079729735	0.0	1.6078550234675086	-0.36487399942991233	0.0	1.6232859234917982	-0.4373632859917896	0.0	1.6863982510610758	-0.46776131390696135	0.0
143	4.792572463768116	1.6470720217860628	-0.5027588632300959	0.0	1.6722890428416681	-0.5020857530948943	0.0	1.7327529639422936	-0.6291283892775226	0.0	1.6451734317842996	-0.7089648532722583	0.0	1.6731615209542345	-0.7726949222090409	0.0	1.6679047343050875	-0.7705668155739502	0.0	1.624467275019539	-0.7209225558060961	0.0	1.6249641930528917	-0.5087621674308095	0.0	1.660099037965472	-0.6423053468128177	0.0	1.6081485557552981	-0.7574683121478267	0.0	1.6453774344698593	-0.7938281298864914	0.0	1.629539126623626	-0.7887191996178473	0.0	1.5956566336983855	-0.7775610272616047	0.0	1.6524994292031736	-0.34216688294509234	0.0	1.6763245394582373	-0.2572448544664759	0.0	1.6999090584781165	-0.3060656393594415	0.0	1.6911433386071184	-0.349333406550336	0.0	1.7069835118561345	-0.4338200825904444	0.0	1.7480077374865322	-0.45114793950949844	0.0	1.6184096602153084	-0.36047630510311107	0.0	1.6328414746191675	-0.4326347673738681	0.0	1.6982137403428708	-0.4586259064371157	0.0
144	4.826086956521739	1.656828916925712	-0.4992261564832746	0.0	1.6817860625498082	-0.49775506366896843	0.0	1.7438133362437989	-0.6248949106349589	0.0	1.6584702156971391	-0.7097331658059076	0.0	1.6906351434886284	-0.7699078286639264	0.0	1.6841982564929447	-0.7691026320640737	0.0	1.6381824666646787	-0.72322883866324	0.0	1.6337137763745506	-0.5053432838078085	0.0	1.663176425198367	-0.6402583540626836	0.0	1.6087850020026402	-0.7556815007675842	0.0	1.6443995548198385	-0.793107368862507	0.0	1.6275752240649657	-0.7877791187405498	0.0	1.597251626027722	-0.7749686713514559	0.0	1.663040507760136	-0.3382805884381677	0.0	1.6871598533322942	-0.25394925169991145	0.0	1.7098553858235928	-0.30217156375814935	0.0	1.7016342220678045	-0.3458952890467969	0.0	1.715999868891255	-0.4304269446418412	0.0	1.756659584309909	-0.4441204870166786	0.0	1.628619305300425	-0.3562985535825357	0.0	1.6412249447289107	-0.42852046140864597	0.0	1.708313514118821	-0.45026990881567386	0.0
